# ProBuilder 4.5.2
# https://unity3d.com/unity/features/worldbuilding/probuilder
# 2024/3/16 21:16:34

mtllib ./实训区.mtl
o 实训区

g 实训区
v -6.8 0 7.78
v -12.8 0 7.78
v -6.8 2 7.78
v -12.8 2 7.78
v -12.8 0 3.78
v -12.8 2 3.78
v -6.8 0 3.78
v -6.8 2 3.78

vt 0 0
vt -6 0
vt 0 2
vt -6 2
vt -4 0
vt -4 2
vt 6 0
vt 6 2
vt 4 0
vt 4 2
vt 0 -4
vt 6 -4
vt -6 -4

vn 0 0 1
vn -1 0 0
vn 0 0 -1
vn 1 0 0
vn 0 1 0
vn 0 -1 0

usemtl ProBuilderDefault
f 3/3/1 4/4/1 2/2/1 1/1/1
f 4/3/2 6/6/2 5/5/2 2/1/2
f 6/8/3 8/3/3 7/1/3 5/7/3
f 8/10/4 3/3/4 1/1/4 7/9/4
f 8/11/5 6/12/5 4/7/5 3/1/5
f 1/1/6 2/2/6 5/13/6 7/11/6

g 1.前言
v -17.8 0 11.56
v -21.8 0 11.56
v -17.8 2 11.56
v -21.8 2 11.56
v -21.8 0 9.56
v -21.8 2 9.56
v -17.8 0 9.56
v -17.8 2 9.56

vt 0 0
vt -4 0
vt 0 2
vt -4 2
vt -2 0
vt -2 2
vt 4 0
vt 4 2
vt 2 0
vt 2 2
vt 0 -2
vt 4 -2
vt -4 -2

vn 0 0 1
vn -1 0 0
vn 0 0 -1
vn 1 0 0
vn 0 1 0
vn 0 -1 0

usemtl ProBuilderDefault
f 11/16/7 12/17/7 10/15/7 9/14/7
f 12/16/8 14/19/8 13/18/8 10/14/8
f 14/21/9 16/16/9 15/14/9 13/20/9
f 16/23/10 11/16/10 9/14/10 15/22/10
f 16/24/11 14/25/11 12/20/11 11/14/11
f 9/14/12 10/15/12 13/26/12 15/24/12

g 11.真实火逃生
v -0.84 0 13.85
v -4.84 0 13.85
v -0.84 2 13.85
v -4.84 2 13.85
v -4.84 0 3.85
v -4.84 2 3.85
v -0.84 0 3.85
v -0.84 2 3.85

vt 0 0
vt -4 0
vt 0 2
vt -4 2
vt -10 0
vt -10 2
vt 4 0
vt 4 2
vt 10 0
vt 10 2
vt 0 -10
vt 4 -10
vt -4 -10

vn 0 0 1
vn -1 0 0
vn 0 0 -1
vn 1 0 0
vn 0 1 0
vn 0 -1 0

usemtl ProBuilderDefault
f 19/29/13 20/30/13 18/28/13 17/27/13
f 20/29/14 22/32/14 21/31/14 18/27/14
f 22/34/15 24/29/15 23/27/15 21/33/15
f 24/36/16 19/29/16 17/27/16 23/35/16
f 24/37/17 22/38/17 20/33/17 19/27/17
f 17/27/18 18/28/18 21/39/18 23/37/18

g 7.电动车防火
v -28.25 0 27.75
v -36.25 0 27.75
v -28.25 2 27.75
v -36.25 2 27.75
v -36.25 0 23.75
v -36.25 2 23.75
v -28.25 0 23.75
v -28.25 2 23.75

vt 0 0
vt -8 0
vt 0 2
vt -8 2
vt -4 0
vt -4 2
vt 8 0
vt 8 2
vt 4 0
vt 4 2
vt 0 -4
vt 8 -4
vt -8 -4

vn 0 0 1
vn -1 0 0
vn 0 0 -1
vn 1 0 0
vn 0 1 0
vn 0 -1 0

usemtl ProBuilderDefault
f 27/42/19 28/43/19 26/41/19 25/40/19
f 28/42/20 30/45/20 29/44/20 26/40/20
f 30/47/21 32/42/21 31/40/21 29/46/21
f 32/49/22 27/42/22 25/40/22 31/48/22
f 32/50/23 30/51/23 28/46/23 27/40/23
f 25/40/24 26/41/24 29/52/24 31/50/24

g 3.火灾种类介绍
v -27.7 0 2.63
v -31.7 0 2.63
v -27.7 2 2.63
v -31.7 2 2.63
v -31.7 0 0.6300001
v -31.7 2 0.6300001
v -27.7 0 0.6300001
v -27.7 2 0.6300001

vt 0 0
vt -4 0
vt 0 2
vt -4 2
vt -2 0
vt -2 2
vt 4 0
vt 4 2
vt 2 0
vt 2 2
vt 0 -2
vt 4 -2
vt -4 -2

vn 0 0 1
vn -1 0 0
vn 0 0 -1
vn 1 0 0
vn 0 1 0
vn 0 -1 0

usemtl ProBuilderDefault
f 35/55/25 36/56/25 34/54/25 33/53/25
f 36/55/26 38/58/26 37/57/26 34/53/26
f 38/60/27 40/55/27 39/53/27 37/59/27
f 40/62/28 35/55/28 33/53/28 39/61/28
f 40/63/29 38/64/29 36/59/29 35/53/29
f 33/53/30 34/54/30 37/65/30 39/63/30

g 消防科普馆
v -25.66454 0 14.72
v -25.66454 0 11.72
v -25.66454 4 14.72
v -25.66337 4 11.67111
v -14.18454 0 11.72
v -14.18454 0 14.72
v -14.18454 4 11.72
v -14.18454 4 14.72
v -15.61954 0 14.72
v -17.05454 0 14.72
v -17.05454 4 14.72
v -15.61954 4 14.72
v -18.48954 0 14.72
v -18.48954 4 14.72
v -19.92454 0 14.72
v -19.92454 4 14.72
v -21.35954 0 14.72
v -21.35954 4 14.72
v -22.79454 0 14.72
v -22.79454 4 14.72
v -24.22954 0 14.72
v -24.22954 4 14.72
v -19.92454 0 13.739
v -19.90454 3.983593 13.72342
v -21.33896 3.983593 13.526
v -21.35954 0 13.56604
v -22.77337 3.983593 12.93769
v -22.79454 0 13.00217
v -24.22836 4 12.44929
v -24.22954 0 12.49818
v -15.61954 4 12.49818
v -17.05454 4 13.00217
v -17.05454 0 13.00217
v -15.61954 0 12.49818
v -18.46954 3.983593 13.55045
v -18.48954 0 13.56604
v -14.90204 0 14.72
v -14.90204 4 14.72
v -24.94704 0 14.72
v -24.94704 4 14.72
v -24.94704 0 12.02775
v -24.94587 4 11.97886
v -14.90204 4 12.02775
v -14.90204 0 12.02775

vt 0 0
vt -3 0
vt 0 4
vt -3.04889 4
vt 3 0
vt 3 4
vt -1.978774 0
vt -2.978774 0
vt -2.978774 4
vt -1.978774 4
vt -3.978773 0
vt -3.978773 4
vt -4.978773 0
vt -4.978773 4
vt -5.978773 0
vt -5.978773 4
vt -6.978773 0
vt -6.978773 4
vt -7.978772 0
vt -7.978772 4
vt 4.979345 0.006803933
vt 4.965417 3.990409
vt 5.965127 3.991778
vt 5.979448 0.008003096
vt 6.965061 3.995867
vt 6.979774 0.01192149
vt 7.979279 4.015666
vt 7.980069 0.0154233
vt 1.980072 4.015351
vt 2.979775 4.011841
vt 2.979775 0.01193772
vt 1.980072 0.01544765
vt 3.965518 3.991616
vt 3.979447 0.008011213
vt 4.960464 -0.9818476
vt 3.960464 -1.154818
vt 3.974383 0.01478608
vt 4.974382 0.01479013
vt 2.974384 -1.703039
vt 2.974384 0.01478203
vt 1.974387 -2.207023
vt 1.974385 0.01477798
vt 7.973563 -2.255888
vt 6.959649 -1.76756
vt 6.97438 0.01479823
vt 7.97438 0.01480228
vt 5.960059 -1.179255
vt 5.974381 0.01479418
vt -4.978774 -0.9809971
vt -3.978775 -1.153965
vt -2.978773 -1.717833
vt -1.978776 -2.221816
vt -6.978774 -1.717833
vt -7.978775 -2.221816
vt -5.978776 -1.153965
vt -0.9787741 0
vt -1.478774 0
vt -1.478774 4
vt -0.9787741 4
vt -8.478772 0
vt -8.478772 4
vt -8.978772 0
vt -8.978772 4
vt 8.979733 4.021076
vt 8.98052 0.02083255
vt 8.480343 0.01869376
vt 8.479554 4.018937
vt 0.9805239 0.02086501
vt 0.9805239 4.020768
vt 1.480345 4.018625
vt 1.480345 0.01872217
vt 1.474386 -2.677455
vt 1.474385 0.01477596
vt 0.9743856 -2.985206
vt 0.9743856 0.01477393
vt 8.974379 0.01480633
vt 8.973562 -3.034063
vt 8.473564 -2.726315
vt 8.47438 0.01480431
vt -1.478775 -2.692249
vt -0.9787741 -3
vt -8.978772 -3
vt -8.478774 -2.692249

vn -1.435 0 0
vn 1.435 0 0
vn 0 0 1
vn 0.2612958 -0.007515813 -0.9831775
vn 0.2780285 -0.00451645 -0.9810409
vn 0.2445632 -0.01051518 -0.9853141
vn 0.7278268 -0.01048629 -0.8617667
vn 0.7162811 -0.01320088 -0.8663609
vn 0.7047353 -0.01591548 -0.8709551
vn 0.6340724 -0.01359699 -0.89693
vn 0.6223525 -0.01618781 -0.9009143
vn 0.6457924 -0.01100617 -0.8929458
vn -0.6458336 0 -0.8929992
vn -0.7010868 -0.0008448968 -0.8725232
vn -0.6973521 0 -0.8739812
vn -0.7048214 -0.001689794 -0.8710651
vn -0.2445761 -0.003259174 -0.9853633
vn -0.001744414 0.9998814 -0.01525851
vn -0.003488827 0.9998983 -0.01405601
vn 0 0.9998645 -0.01646102
vn -0.01193676 0.9998816 -0.007013542
vn -0.02387352 0.9998616 -2.308999E-09
vn 0 0.9999017 -0.01402708
vn 0 1 0
vn 0.01472932 0.9998742 -0.004516636
vn 0.02945865 0.9997485 -0.009033273
vn 0.007736598 0.9999436 -0.009160342
vn 0.003868299 0.9999245 -0.01145015
vn 0 0.9999056 -0.01373996
vn 0.003884698 0.9999024 -0.0137074
vn 0.001942349 0.9998834 -0.01508421
vn 0 -1 0
vn 0.7521445 -0.01051526 -0.8515657
vn 0.9832855 -0.009041507 -0.7282834
vn -0.7521828 0 -0.8516142
vn -0.9833246 0 -0.7283139

usemtl ProBuilderDefault
f 43/68/31 44/69/31 42/67/31 41/66/31
f 47/71/32 48/68/32 46/66/32 45/70/32
f 52/75/33 51/74/33 50/73/33 49/72/33
f 51/74/33 54/77/33 53/76/33 50/73/33
f 54/77/33 56/79/33 55/78/33 53/76/33
f 56/79/33 58/81/33 57/80/33 55/78/33
f 58/81/33 60/83/33 59/82/33 57/80/33
f 60/83/33 62/85/33 61/84/33 59/82/33
f 64/87/35 63/86/34 66/89/36 65/88/34
f 65/88/37 66/89/38 68/91/39 67/90/38
f 67/90/41 68/91/40 70/93/42 69/92/40
f 73/96/43 72/95/43 71/94/43 74/97/43
f 76/99/46 75/98/44 72/95/45 73/96/44
f 63/86/47 64/87/47 75/98/47 76/99/47
f 56/103/50 54/102/48 75/101/49 64/100/48
f 54/102/53 51/105/51 72/104/52 75/101/51
f 51/105/54 52/107/54 71/106/54 72/104/54
f 60/110/55 67/109/56 69/108/55 62/111/54
f 60/110/58 58/113/59 65/112/58 67/109/57
f 58/113/61 56/103/50 64/100/61 65/112/60
f 76/115/62 53/76/62 55/78/62 63/114/62
f 73/116/62 50/73/62 53/76/62 76/115/62
f 74/117/62 49/72/62 50/73/62 73/116/62
f 68/118/62 59/82/62 61/84/62 70/119/62
f 66/120/62 57/80/62 59/82/62 68/118/62
f 63/114/62 55/78/62 57/80/62 66/120/62
f 48/124/33 78/123/33 77/122/33 46/121/33
f 78/123/33 52/75/33 49/72/33 77/122/33
f 62/85/33 80/126/33 79/125/33 61/84/33
f 80/126/33 43/128/33 41/127/33 79/125/33
f 82/132/63 81/131/63 42/130/63 44/129/63
f 69/92/64 70/93/64 81/131/64 82/132/64
f 84/136/65 83/135/65 47/134/65 45/133/65
f 84/136/66 74/97/66 71/94/66 83/135/66
f 52/107/54 78/138/54 83/137/54 71/106/54
f 78/138/54 48/140/54 47/139/54 83/137/54
f 43/141/54 80/144/54 82/143/54 44/142/54
f 80/144/54 62/111/54 69/108/54 82/143/54
f 74/117/62 84/145/62 77/122/62 49/72/62
f 84/145/62 45/146/62 46/121/62 77/122/62
f 41/127/62 42/147/62 81/148/62 79/125/62
f 79/125/62 81/148/62 70/119/62 61/84/62

g 5.消防装备展示
v -34.76 0 23.2
v -38.76 0 23.2
v -34.76 2 23.2
v -38.76 2 23.2
v -38.76 0 14.2
v -38.76 2 14.2
v -34.76 0 14.2
v -34.76 2 14.2

vt 0 0
vt -4 0
vt 0 2
vt -4 2
vt -9 0
vt -9 2
vt 4 0
vt 4 2
vt 9 0
vt 9 2
vt 0 -9
vt 4 -9
vt -4 -9

vn 0 0 1
vn -1 0 0
vn 0 0 -1
vn 1 0 0
vn 0 1 0
vn 0 -1 0

usemtl ProBuilderDefault
f 87/151/67 88/152/67 86/150/67 85/149/67
f 88/151/68 90/154/68 89/153/68 86/149/68
f 90/156/69 92/151/69 91/149/69 89/155/69
f 92/158/70 87/151/70 85/149/70 91/157/70
f 92/159/71 90/160/71 88/155/71 87/149/71
f 85/149/72 86/150/72 89/161/72 91/159/72

g 4.火灾成因
v -18.77 0 27.75
v -26.77 0 27.75
v -18.77 2 27.75
v -26.77 2 27.75
v -26.77 0 23.75
v -26.77 2 23.75
v -18.77 0 23.75
v -18.77 2 23.75

vt 0 0
vt -8 0
vt 0 2
vt -8 2
vt -4 0
vt -4 2
vt 8 0
vt 8 2
vt 4 0
vt 4 2
vt 0 -4
vt 8 -4
vt -8 -4

vn 0 0 1
vn -1 0 0
vn 0 0 -1
vn 1 0 0
vn 0 1 0
vn 0 -1 0

usemtl ProBuilderDefault
f 95/164/73 96/165/73 94/163/73 93/162/73
f 96/164/74 98/167/74 97/166/74 94/162/74
f 98/169/75 100/164/75 99/162/75 97/168/75
f 100/171/76 95/164/76 93/162/76 99/170/76
f 100/172/77 98/173/77 96/168/77 95/162/77
f 93/162/78 94/163/78 97/174/78 99/172/78

g 8.灭火器材的使用教学与体验
v -0.65 0 26.76
v -4.65 0 26.76
v -0.65 2 26.76
v -4.65 2 26.76
v -4.65 0 17.76
v -4.65 2 17.76
v -0.65 0 17.76
v -0.65 2 17.76

vt 0 0
vt -4 0
vt 0 2
vt -4 2
vt -9 0
vt -9 2
vt 4 0
vt 4 2
vt 9 0
vt 9 2
vt 0 -9
vt 4 -9
vt -4 -9

vn 0 0 1
vn -1 0 0
vn 0 0 -1
vn 1 0 0
vn 0 1 0
vn 0 -1 0

usemtl ProBuilderDefault
f 103/177/79 104/178/79 102/176/79 101/175/79
f 104/177/80 106/180/80 105/179/80 102/175/80
f 106/182/81 108/177/81 107/175/81 105/181/81
f 108/184/82 103/177/82 101/175/82 107/183/82
f 108/185/83 106/186/83 104/181/83 103/175/83
f 101/175/84 102/176/84 105/187/84 107/185/84

g 9.火灾成因试验台
v -7.07 0 27.75
v -15.07 0 27.75
v -7.07 2 27.75
v -15.07 2 27.75
v -15.07 0 23.75
v -15.07 2 23.75
v -7.07 0 23.75
v -7.07 2 23.75

vt 0 0
vt -8 0
vt 0 2
vt -8 2
vt -4 0
vt -4 2
vt 8 0
vt 8 2
vt 4 0
vt 4 2
vt 0 -4
vt 8 -4
vt -8 -4

vn 0 0 1
vn -1 0 0
vn 0 0 -1
vn 1 0 0
vn 0 1 0
vn 0 -1 0

usemtl ProBuilderDefault
f 111/190/85 112/191/85 110/189/85 109/188/85
f 112/190/86 114/193/86 113/192/86 110/188/86
f 114/195/87 116/190/87 115/188/87 113/194/87
f 116/197/88 111/190/88 109/188/88 115/196/88
f 116/198/89 114/199/89 112/194/89 111/188/89
f 109/188/90 110/189/90 113/200/90 115/198/90

g 6.消防安全标识
v -34.41 0 11.58
v -38.41 0 11.58
v -34.41 2 11.58
v -38.41 2 11.58
v -38.41 0 1.58
v -38.41 2 1.58
v -34.41 0 1.58
v -34.41 2 1.58

vt 0 0
vt -4 0
vt 0 2
vt -4 2
vt -10 0
vt -10 2
vt 4 0
vt 4 2
vt 10 0
vt 10 2
vt 0 -10
vt 4 -10
vt -4 -10

vn 0 0 1
vn -1 0 0
vn 0 0 -1
vn 1 0 0
vn 0 1 0
vn 0 -1 0

usemtl ProBuilderDefault
f 119/203/91 120/204/91 118/202/91 117/201/91
f 120/203/92 122/206/92 121/205/92 118/201/92
f 122/208/93 124/203/93 123/201/93 121/207/93
f 124/210/94 119/203/94 117/201/94 123/209/94
f 124/211/95 122/212/95 120/207/95 119/201/95
f 117/201/96 118/202/96 121/213/96 123/211/96

g 科普区
v -27.26 0 7.78
v -33.26 0 7.78
v -27.26 2 7.78
v -33.26 2 7.78
v -33.26 0 3.78
v -33.26 2 3.78
v -27.26 0 3.78
v -27.26 2 3.78

vt 0 0
vt -6 0
vt 0 2
vt -6 2
vt -4 0
vt -4 2
vt 6 0
vt 6 2
vt 4 0
vt 4 2
vt 0 -4
vt 6 -4
vt -6 -4

vn 0 0 1
vn -1 0 0
vn 0 0 -1
vn 1 0 0
vn 0 1 0
vn 0 -1 0

usemtl ProBuilderDefault
f 127/216/97 128/217/97 126/215/97 125/214/97
f 128/216/98 130/219/98 129/218/98 126/214/98
f 130/221/99 132/216/99 131/214/99 129/220/99
f 132/223/100 127/216/100 125/214/100 131/222/100
f 132/224/101 130/225/101 128/220/101 127/214/101
f 125/214/102 126/215/102 129/226/102 131/224/102

g plane
v 0 0 0
v 0 0 7.5
v -6.666667 0 0
v -6.666667 0 7.5
v 0 0 15
v -6.666667 0 15
v 0 0 22.5
v -6.666667 0 22.5
v 0 0 30
v -6.666667 0 30
v -13.33333 0 0
v -13.33333 0 7.5
v -13.33333 0 15
v -13.33333 0 22.5
v -13.33333 0 30
v -20 0 0
v -20 0 7.5
v -20 0 15
v -20 0 22.5
v -20 0 30
v -26.66667 0 0
v -26.66667 0 7.5
v -26.66667 0 15
v -26.66667 0 22.5
v -26.66667 0 30
v -33.33333 0 0
v -33.33333 0 7.5
v -33.33333 0 15
v -33.33333 0 22.5
v -33.33333 0 30
v -40 0 0
v -40 0 7.5
v -40 0 15
v -40 0 22.5
v -40 0 30

vt 0 0
vt 0 7.5
vt 6.666667 0
vt 6.666667 7.5
vt 0 15
vt 6.666667 15
vt 0 22.5
vt 6.666667 22.5
vt 0 30
vt 6.666667 30
vt 13.33333 0
vt 13.33333 7.5
vt 13.33333 15
vt 13.33333 22.5
vt 13.33333 30
vt 20 0
vt 20 7.5
vt 20 15
vt 20 22.5
vt 20 30
vt 26.66667 0
vt 26.66667 7.5
vt 26.66667 15
vt 26.66667 22.5
vt 26.66667 30
vt 33.33333 0
vt 33.33333 7.5
vt 33.33333 15
vt 33.33333 22.5
vt 33.33333 30
vt 40 0
vt 40 7.5
vt 40 15
vt 40 22.5
vt 40 30

vn 0 1 0

usemtl ProBuilderDefault
f 135/229/103 136/230/103 134/228/103 133/227/103
f 136/230/103 138/232/103 137/231/103 134/228/103
f 138/232/103 140/234/103 139/233/103 137/231/103
f 140/234/103 142/236/103 141/235/103 139/233/103
f 143/237/103 144/238/103 136/230/103 135/229/103
f 144/238/103 145/239/103 138/232/103 136/230/103
f 145/239/103 146/240/103 140/234/103 138/232/103
f 146/240/103 147/241/103 142/236/103 140/234/103
f 148/242/103 149/243/103 144/238/103 143/237/103
f 149/243/103 150/244/103 145/239/103 144/238/103
f 150/244/103 151/245/103 146/240/103 145/239/103
f 151/245/103 152/246/103 147/241/103 146/240/103
f 153/247/103 154/248/103 149/243/103 148/242/103
f 154/248/103 155/249/103 150/244/103 149/243/103
f 155/249/103 156/250/103 151/245/103 150/244/103
f 156/250/103 157/251/103 152/246/103 151/245/103
f 158/252/103 159/253/103 154/248/103 153/247/103
f 159/253/103 160/254/103 155/249/103 154/248/103
f 160/254/103 161/255/103 156/250/103 155/249/103
f 161/255/103 162/256/103 157/251/103 156/250/103
f 163/257/103 164/258/103 159/253/103 158/252/103
f 164/258/103 165/259/103 160/254/103 159/253/103
f 165/259/103 166/260/103 161/255/103 160/254/103
f 166/260/103 167/261/103 162/256/103 161/255/103

